<svg width="22" height="23" viewBox="0 0 22 23" fill="none" xmlns="http://www.w3.org/2000/svg">
<path d="M14.7 22.0001C14.1 22.0001 13.7 21.6001 13.7 21.0001V16.7001C13.7 15.9001 13.7 15.9001 13.4 15.6001C13.1 15.3001 13 14.9001 13.2 14.6001C13.3 14.2001 13.7 14.0001 14 13.9001C16.8 13.6001 19.4 12.7001 19.4 8.20008C19.4 7.10008 19 6.10008 18.2 5.30008C17.9 5.00008 17.8 4.60008 18 4.20008C18.2 3.70008 18.3 3.30008 18.3 2.80008C18.3 2.50008 18.3 2.30008 18.2 2.00008C17.7 2.10008 16.8 2.40008 15.5 3.20008C15.3 3.30008 15 3.40008 14.7 3.30008C12.5 2.80008 10.3 2.80008 8.09996 3.30008C7.79996 3.40008 7.59996 3.30008 7.29996 3.20008C5.79996 2.40008 4.89996 2.10008 4.39996 2.00008C4.39996 2.30008 4.29996 2.60008 4.29996 2.80008C4.29996 3.30008 4.39996 3.80008 4.59996 4.20008C4.69996 4.60008 4.59996 5.00008 4.39996 5.30008C3.99996 5.70008 3.69996 6.20008 3.49996 6.70008C3.29996 7.20008 3.19996 7.70008 3.19996 8.30008C3.19996 12.5001 5.39996 13.6001 8.59996 14.0001C8.99996 14.0001 9.29996 14.3001 9.39996 14.7001C9.49996 15.1001 9.39996 15.5001 9.19996 15.7001C8.89996 16.0001 8.89996 16.2001 8.89996 17.1001V18.8001V18.9001V21.1001C8.89996 21.7001 8.49996 22.1001 7.89996 22.1001C7.29996 22.1001 6.89996 21.7001 6.89996 21.1001V20.1001C3.89996 20.5001 2.69996 18.8001 1.79996 17.6001C1.39996 17.1001 1.09996 16.6001 0.799959 16.5001C0.299959 16.4001 -0.100041 15.8001 0.0999593 15.3001C0.299959 14.8001 0.799959 14.4001 1.29996 14.6001C2.29996 14.9001 2.89996 15.7001 3.49996 16.5001C4.29996 17.6001 4.99996 18.6001 6.89996 18.2001V17.3001C6.89996 16.9001 6.79996 16.4001 6.89996 15.8001C4.09996 15.2001 1.19996 13.6001 1.19996 8.40008C1.19996 7.60008 1.39996 6.80008 1.69996 6.10008C1.89996 5.60008 2.19996 5.00008 2.59996 4.60008C2.49996 4.10008 2.39996 3.60008 2.39996 3.00008C2.39996 2.20008 2.59996 1.50008 2.89996 0.800076C2.99996 0.300076 3.19996 0.100076 3.49996 0.100076C3.79996 7.5914e-05 5.19996 -0.199924 7.89996 1.40008C10.1 0.900076 12.4 0.900076 14.6 1.40008C17.3 -0.199924 18.6 7.5914e-05 19 0.100076C19.3 0.200076 19.5 0.400076 19.6 0.600076C20 1.30008 20.1 2.00008 20.2 2.80008C20.2 3.30008 20.2 3.90008 20 4.40008C20.9 5.50008 21.4 6.80008 21.4 8.20008C21.4 13.5001 18.4 15.1001 15.7 15.7001C15.8 16.0001 15.8 16.4001 15.7 16.7001V21.0001C15.7 21.6001 15.2 22.0001 14.7 22.0001Z" fill="#08fdd8ff"/>
</svg>
