<svg width="22" height="17" viewBox="0 0 22 17" fill="none" xmlns="http://www.w3.org/2000/svg">
<path fill-rule="evenodd" clip-rule="evenodd" d="M21.75 14V3C21.75 1.34314 20.4069 0 18.75 0L3.25 1.51932e-05C1.59314 1.68029e-05 0.25 1.34316 0.25 3.00002V14C0.25 15.6568 1.59314 17 3.25 17L18.75 17C20.4069 17 21.75 15.6568 21.75 14ZM19.75 5.25946V14C19.75 14.5523 19.3023 15 18.75 15L3.25 15C2.69772 15 2.25 14.5523 2.25 14L2.25 5.25933L9.31317 10.0623C10.3312 10.7546 11.6689 10.7546 12.687 10.0623L19.75 5.25946ZM19.7386 2.84861C19.6657 2.36816 19.2508 2 18.75 2L3.25 2.00002C2.74922 2.00002 2.33442 2.36811 2.26141 2.84849L10.4378 8.40843C10.7771 8.63919 11.223 8.63919 11.5624 8.40843L19.7386 2.84861Z" fill="#08fdd8ff"/>
</svg>
