		<svg xmlns="http://www.w3.org/2000/svg" width="110" height="30" fill="none" fill-rule="evenodd">
								<path class="svg-logo"
									d="M19.158 21.912l-8.543-10.595 8.012-9.368H13.32L1.9 16.188v5.723h4.297V15.78l1.575-1.857 6.095 7.99h5.3zm22.907 0L47.8 1.932h-4.828l-3.5 14.427-3.8-14.427h-3.356L28.472 16.36 24.928 1.932h-4.81l5.77 19.963h4.554l3.5-13.712 3.527 13.712h4.588v.017zm16.95.358c6.095 0 10.546-4.31 10.546-10.322s-4.434-10.34-10.546-10.34c-6.078 0-10.512 4.31-10.512 10.322s4.434 10.34 10.512 10.34zm0-3.78c-3.715 0-6.095-2.845-6.095-6.558 0-3.747 2.38-6.558 6.095-6.558s6.13 2.8 6.13 6.558c0 3.713-2.414 6.558-6.13 6.558zm30.132 3.424L84.6 14.315c2.174-.51 4.417-2.402 4.417-5.928 0-3.713-2.568-6.44-6.763-6.44H72.83v19.963h4.297V14.81h3.15l3.955 7.103h4.914zm-7.533-10.85H77.11V5.68h4.503c1.73 0 3.013 1.022 3.013 2.69.017 1.686-1.284 2.69-3.013 2.69zM110 21.912l-8.56-10.595 8.012-9.368h-5.3l-7.122 8.925V1.932h-4.297v19.963h4.297v-6.132l1.575-1.857 6.095 7.99h5.3v.017z"
									fill="#111"></path>
								<path d="M6.198 6.087L1.9 11.283V4.435H0v-2.59h6.198v4.24z" fill="#ffa800"></path>
							</svg>